<svg xmlns="http://www.w3.org/2000/svg" width="28" height="27"><path d="M22.35 16.726c-.554-.576-1.222-.884-1.929-.884-.702 0-1.376.302-1.952.878l-1.803 1.795c-.149-.08-.297-.154-.44-.228-.205-.103-.399-.2-.565-.302-1.689-1.071-3.224-2.468-4.697-4.274-.713-.9-1.192-1.658-1.541-2.428.468-.427.902-.871 1.324-1.299.16-.159.32-.325.48-.484 1.198-1.197 1.198-2.747 0-3.944L9.669 4.001c-.177-.177-.36-.359-.531-.542A26.208 26.208 0 0 0 8.065 2.4c-.553-.548-1.215-.838-1.912-.838-.696 0-1.369.29-1.94.838l-.011.011-1.941 1.954a4.17 4.17 0 0 0-1.238 2.65c-.137 1.664.354 3.214.73 4.229.925 2.49 2.306 4.798 4.366 7.271 2.5 2.98 5.507 5.334 8.943 6.992 1.313.621 3.065 1.356 5.022 1.482.12.005.245.011.36.011 1.318 0 2.425-.473 3.292-1.413.006-.012.018-.017.023-.029.297-.359.639-.684.999-1.031.245-.234.496-.479.742-.735.565-.587.862-1.271.862-1.972 0-.707-.303-1.385-.879-1.955zm2.043 6c-.006 0-.006.006 0 0-.223.239-.451.456-.697.695-.37.354-.747.724-1.101 1.14-.576.615-1.255.906-2.146.906-.085 0-.177 0-.262-.006-1.695-.108-3.27-.769-4.452-1.333-3.23-1.561-6.066-3.778-8.423-6.588-1.946-2.342-3.247-4.507-4.109-6.832-.531-1.419-.725-2.525-.639-3.567.057-.667.314-1.22.787-1.693l1.946-1.943c.28-.262.577-.405.868-.405.359 0 .65.217.833.399l.017.017c.348.325.679.661 1.027 1.02.177.183.36.365.543.553l1.558 1.556c.604.604.604 1.162 0 1.766-.166.166-.326.331-.491.49-.48.491-.936.947-1.433 1.391-.011.011-.023.017-.028.028-.491.491-.4.969-.297 1.294l.017.051c.405.98.976 1.904 1.843 3.003l.006.006c1.575 1.938 3.236 3.448 5.068 4.604.234.149.474.268.702.382.205.103.399.2.565.302.023.012.046.029.068.04.194.097.377.143.565.143.474 0 .771-.297.868-.394l1.952-1.948c.194-.194.502-.428.861-.428.354 0 .645.222.822.416l.012.012 3.144 3.139c.588.582.588 1.18.006 1.784zm-8.8-16.303a7.231 7.231 0 0 1 3.937 2.04 7.256 7.256 0 0 1 2.044 3.932.765.765 0 0 0 .759.638c.045 0 .085-.006.131-.011a.77.77 0 0 0 .633-.889 8.783 8.783 0 0 0-2.471-4.759 8.807 8.807 0 0 0-4.765-2.467.774.774 0 0 0-.89.627.76.76 0 0 0 .622.889zm12.395 5.487a14.455 14.455 0 0 0-4.069-7.835A14.487 14.487 0 0 0 16.072.012a.768.768 0 0 0-.885.627.774.774 0 0 0 .634.889 12.97 12.97 0 0 1 7.014 3.63 12.904 12.904 0 0 1 3.635 7.003.765.765 0 0 0 .89.627.756.756 0 0 0 .628-.878z" fill="#fff"/></svg>